<?xml version="1.0" encoding="UTF-8" standalone="no"?>
<svg
   version="1.1"
   viewBox="0 0 300 120.89409"
   id="svg3"
   sodipodi:docname="GOSI-02.svg"
   width="300"
   height="120.89409"
   xmlns:inkscape="http://www.inkscape.org/namespaces/inkscape"
   xmlns:sodipodi="http://sodipodi.sourceforge.net/DTD/sodipodi-0.dtd"
   xmlns="http://www.w3.org/2000/svg"
   xmlns:svg="http://www.w3.org/2000/svg">
  <sodipodi:namedview
     id="namedview3"
     pagecolor="#ffffff"
     bordercolor="#999999"
     borderopacity="1"
     inkscape:showpageshadow="2"
     inkscape:pageopacity="0"
     inkscape:pagecheckerboard="0"
     inkscape:deskcolor="#d1d1d1" />
  <defs
     id="defs1">
    <style
       id="style1">
      .cls-1 {
        fill: #00004e;
      }

      .cls-2 {
        fill: #00bf00;
      }
    </style>
  </defs>
  <!-- Generator: Adobe Illustrator 28.7.1, SVG Export Plug-In . SVG Version: 1.2.0 Build 142)  -->
  <g
     id="g2"
     transform="matrix(0.4806922,0,0,0.4806922,-90.322064,-179.92309)">
    <path
       class="cls-2"
       d="m 812,501.4 -67.2,67.2 c -3.6,4.1 -8.8,6.5 -14.2,6.5 h -14.7 c 0,-31.8 30.9,-59.5 57.1,-73.7 -26.2,-14.2 -57.1,-41.9 -57.1,-73.7 h 14.7 c 5.5,0 10.7,2.4 14.2,6.5 z"
       id="path1" />
    <path
       class="cls-1"
       d="m 645.1,450.4 v 124.8 h 35.4 V 427.7 h -12.8 c -12.5,0 -22.6,10.1 -22.6,22.6 v 0 z m 17.7,-34.5 c 11.5,0 20.8,-9.3 20.8,-20.8 0,-11.5 -9.3,-20.8 -20.8,-20.8 -11.5,0 -20.8,9.3 -20.8,20.8 0,11.5 9.3,20.8 20.8,20.8 z m -362.5,25.4 v 2.4 c -4.8,-5.5 -11,-9.9 -18.8,-13.2 -7.7,-3.3 -16.3,-4.9 -25.7,-4.9 -9.4,0 -24.8,3 -35.1,9.1 -10.3,6 -18.3,14.5 -24.1,25.4 -5.8,10.9 -8.7,23.6 -8.7,38.2 0,14.6 2.9,26.6 8.7,37.3 5.8,10.6 13.9,18.9 24.4,24.9 10.5,5.9 22.3,8.9 35.4,8.9 13.1,0 17.5,-1.7 25.4,-5.2 7.9,-3.5 14.1,-8.1 18.5,-14 V 564 c 0,10.5 -3.3,18.8 -10,25 -6.7,6.2 -15.8,9.3 -27.3,9.3 -11.5,0 -16.1,-1.6 -21.7,-4.9 -4.8,-2.8 -8.3,-6.7 -10.6,-11.5 H 195 c 1.8,8.5 5.4,16 10.8,22.3 5.9,6.9 13.7,12.2 23.4,16 9.7,3.7 20.5,5.6 32.6,5.6 12.1,0 27.4,-2.5 38.5,-7.6 11.1,-5.1 19.7,-12.3 26,-21.8 6.2,-9.5 9.3,-20.8 9.3,-33.9 V 427.8 h -21.8 c -7.5,0 -13.6,6.1 -13.6,13.6 h 0.1 z m -4.8,77.4 c -3.2,6.4 -7.8,11.4 -13.7,14.9 -5.9,3.6 -12.6,5.3 -19.8,5.3 -7.2,0 -14.1,-1.7 -20,-5.2 -5.9,-3.5 -10.4,-8.4 -13.7,-14.9 -3.3,-6.5 -4.9,-13.7 -4.9,-21.7 0,-8 1.6,-14.9 4.9,-21.3 3.3,-6.4 7.9,-11.4 13.7,-14.9 5.9,-3.5 12.5,-5.3 20,-5.3 7.5,0 13.8,1.8 19.7,5.3 5.9,3.6 10.4,8.5 13.7,14.9 3.3,6.4 4.9,13.6 4.9,21.6 0,8 -1.6,14.9 -4.8,21.3 z m 308.8,-27 c -7,-2.7 -15.9,-5.4 -26.8,-7.9 -6.7,-1.4 -12,-2.8 -15.7,-4.1 -3.7,-1.3 -6.8,-3 -9.2,-5.1 -2.4,-2 -3.6,-4.8 -3.6,-8.4 0,-3.6 1.8,-7.4 5.3,-10 3.5,-2.6 8.3,-3.9 14.1,-3.9 5.8,0 12.6,1.7 17.2,5.2 4.5,3.5 7.2,8 8.1,13.7 h 33.5 c -0.7,-9.4 -3.6,-17.5 -8.5,-24.4 -5,-6.8 -11.8,-12.1 -20.5,-15.8 -8.7,-3.7 -18.9,-5.6 -30.6,-5.6 -11.7,0 -19.2,1.8 -27.3,5.5 -8.1,3.6 -14.2,8.7 -18.5,15.2 -4.3,6.5 -6.4,13.7 -6.4,21.7 0,8 2.4,17.8 7.2,23.7 4.8,5.9 10.5,10.1 17,12.6 6.6,2.6 15.2,5.1 25.8,7.6 6.9,2 12.4,3.6 16.4,4.9 4,1.3 7.3,3.2 10,5.6 2.7,2.4 4,5.5 4,9.5 0,4 -2,9.3 -6.1,12.4 -4.1,3.1 -9.7,4.7 -16.8,4.7 -7.1,0 -14.4,-2 -19.3,-5.9 -4.9,-3.9 -7.5,-9.3 -7.9,-16.2 h -34.3 c 0.5,10.1 3.5,18.9 8.8,26.5 5.3,7.5 12.5,13.4 21.6,17.7 9,4.3 19.4,6.4 31.1,6.4 11.7,0 20.8,-2 29.5,-5.9 8.7,-3.9 15.4,-9.3 20.2,-16.1 4.8,-6.8 7.2,-14.9 7.2,-24.4 0,-9.5 -2.5,-19.6 -7.6,-25.8 -5.1,-6.2 -11.1,-10.7 -18.1,-13.4 z m -137,-56.4 c -11.6,-6.5 -24.9,-9.7 -39.8,-9.7 -14.9,0 -28.2,3.2 -39.8,9.7 -11.6,6.5 -20.7,15.5 -27.3,27 -6.6,11.5 -9.8,24.6 -9.8,39.1 0,14.5 3.3,27.6 9.8,39.1 6.6,11.5 15.7,20.5 27.3,27 11.6,6.5 24.9,9.7 39.8,9.7 14.9,0 28.2,-3.2 39.8,-9.7 11.6,-6.5 20.7,-15.5 27.3,-27 6.6,-11.5 9.8,-24.6 9.8,-39.1 0,-14.5 -3.3,-27.6 -9.8,-39.1 -6.6,-11.5 -15.7,-20.5 -27.3,-27 z m -3.9,90 c -3.6,6.8 -8.4,12.2 -14.5,16 -6.1,3.8 -13.4,5.7 -21.4,5.7 -8,0 -15.3,-1.9 -21.4,-5.7 -6.1,-3.8 -11,-9.1 -14.5,-16 -3.5,-6.8 -5.3,-14.8 -5.3,-23.8 0,-9 1.8,-17 5.3,-23.8 3.6,-6.8 8.4,-12.2 14.5,-16 6.1,-3.8 13.4,-5.7 21.4,-5.7 8,0 15.3,1.9 21.4,5.7 6.1,3.8 11,9.1 14.5,16 3.5,6.8 5.3,14.8 5.3,23.8 0,9 -1.8,17 -5.3,23.8 z"
       id="path2" />
  </g>
</svg>
